%TF.GenerationSoftware,KiCad,Pcbnew,9.0.2*%
%TF.CreationDate,2025-06-19T05:33:31+06:00*%
%TF.ProjectId,Amiga500 Actionreplay 5,416d6967-6135-4303-9020-416374696f6e,rev?*%
%TF.SameCoordinates,Original*%
%TF.FileFunction,Paste,Top*%
%TF.FilePolarity,Positive*%
%FSLAX46Y46*%
G04 Gerber Fmt 4.6, Leading zero omitted, Abs format (unit mm)*
G04 Created by KiCad (PCBNEW 9.0.2) date 2025-06-19 05:33:31*
%MOMM*%
%LPD*%
G01*
G04 APERTURE LIST*
G04 Aperture macros list*
%AMRoundRect*
0 Rectangle with rounded corners*
0 $1 Rounding radius*
0 $2 $3 $4 $5 $6 $7 $8 $9 X,Y pos of 4 corners*
0 Add a 4 corners polygon primitive as box body*
4,1,4,$2,$3,$4,$5,$6,$7,$8,$9,$2,$3,0*
0 Add four circle primitives for the rounded corners*
1,1,$1+$1,$2,$3*
1,1,$1+$1,$4,$5*
1,1,$1+$1,$6,$7*
1,1,$1+$1,$8,$9*
0 Add four rect primitives between the rounded corners*
20,1,$1+$1,$2,$3,$4,$5,0*
20,1,$1+$1,$4,$5,$6,$7,0*
20,1,$1+$1,$6,$7,$8,$9,0*
20,1,$1+$1,$8,$9,$2,$3,0*%
G04 Aperture macros list end*
%ADD10R,1.866900X0.558800*%
%ADD11R,2.159000X0.558800*%
%ADD12R,0.700000X1.925000*%
%ADD13R,1.925000X0.700000*%
%ADD14RoundRect,0.150000X-0.825000X-0.150000X0.825000X-0.150000X0.825000X0.150000X-0.825000X0.150000X0*%
%ADD15RoundRect,0.250000X-0.625000X0.400000X-0.625000X-0.400000X0.625000X-0.400000X0.625000X0.400000X0*%
%ADD16RoundRect,0.250000X-0.412500X-0.650000X0.412500X-0.650000X0.412500X0.650000X-0.412500X0.650000X0*%
%ADD17RoundRect,0.250000X0.650000X-0.412500X0.650000X0.412500X-0.650000X0.412500X-0.650000X-0.412500X0*%
%ADD18RoundRect,0.250001X0.624999X-0.462499X0.624999X0.462499X-0.624999X0.462499X-0.624999X-0.462499X0*%
%ADD19RoundRect,0.250000X-0.400000X-0.625000X0.400000X-0.625000X0.400000X0.625000X-0.400000X0.625000X0*%
%ADD20RoundRect,0.250001X0.462499X0.624999X-0.462499X0.624999X-0.462499X-0.624999X0.462499X-0.624999X0*%
%ADD21RoundRect,0.250000X0.400000X0.625000X-0.400000X0.625000X-0.400000X-0.625000X0.400000X-0.625000X0*%
%ADD22RoundRect,0.150000X0.150000X0.587500X-0.150000X0.587500X-0.150000X-0.587500X0.150000X-0.587500X0*%
%ADD23RoundRect,0.150000X0.587500X0.150000X-0.587500X0.150000X-0.587500X-0.150000X0.587500X-0.150000X0*%
%ADD24RoundRect,0.381000X0.381000X-3.619000X0.381000X3.619000X-0.381000X3.619000X-0.381000X-3.619000X0*%
G04 APERTURE END LIST*
D10*
%TO.C,U10*%
X205742918Y-57244400D03*
X205742918Y-55974400D03*
X205742918Y-54704400D03*
X205742918Y-53434400D03*
X205742918Y-52164400D03*
X205742918Y-50894400D03*
X205742918Y-49624400D03*
X205742918Y-48354400D03*
X205742918Y-47084400D03*
X205742918Y-45814400D03*
X205742918Y-44544400D03*
X205742918Y-43274400D03*
X205742918Y-42004400D03*
X205742918Y-40734400D03*
X205742918Y-39464400D03*
X205742918Y-38194400D03*
X192446018Y-38194400D03*
X192446018Y-39464400D03*
X192446018Y-40734400D03*
X192446018Y-42004400D03*
X192446018Y-43274400D03*
X192446018Y-44544400D03*
X192446018Y-45814400D03*
X192446018Y-47084400D03*
X192446018Y-48354400D03*
X192446018Y-49624400D03*
X192446018Y-50894400D03*
X192446018Y-52164400D03*
X192446018Y-53434400D03*
X192446018Y-54704400D03*
X192446018Y-55974400D03*
X192446018Y-57244400D03*
%TD*%
D11*
%TO.C,U6*%
X89911800Y-44544400D03*
X89911800Y-45814400D03*
X89911800Y-47084400D03*
X89911800Y-48354400D03*
X89911800Y-49624400D03*
X89911800Y-50894400D03*
X89911800Y-52164400D03*
X96668200Y-52164400D03*
X96668200Y-50894400D03*
X96668200Y-49624400D03*
X96668200Y-48354400D03*
X96668200Y-47084400D03*
X96668200Y-45814400D03*
X96668200Y-44544400D03*
%TD*%
D12*
%TO.C,U4*%
X127822500Y-52406900D03*
X129092500Y-52406900D03*
X130362500Y-52406900D03*
D13*
X131875000Y-50894400D03*
X131875000Y-49624400D03*
X131875000Y-48354400D03*
X131875000Y-47084400D03*
X131875000Y-45814400D03*
D12*
X130362500Y-44301900D03*
X129092500Y-44301900D03*
X127822500Y-44301900D03*
X126552500Y-44301900D03*
X125282500Y-44301900D03*
D13*
X123770000Y-45814400D03*
X123770000Y-47084400D03*
X123770000Y-48354400D03*
X123770000Y-49624400D03*
X123770000Y-50894400D03*
D12*
X125282500Y-52406900D03*
X126552500Y-52406900D03*
%TD*%
D14*
%TO.C,U11*%
X97673000Y-63467400D03*
X97673000Y-64737400D03*
X97673000Y-66007400D03*
X97673000Y-67277400D03*
X102623000Y-67277400D03*
X102623000Y-66007400D03*
X102623000Y-64737400D03*
X102623000Y-63467400D03*
%TD*%
D15*
%TO.C,R1*%
X91306000Y-69709400D03*
X91306000Y-72809400D03*
%TD*%
D12*
%TO.C,U5*%
X109280500Y-52406900D03*
X110550500Y-52406900D03*
X111820500Y-52406900D03*
D13*
X113333000Y-50894400D03*
X113333000Y-49624400D03*
X113333000Y-48354400D03*
X113333000Y-47084400D03*
X113333000Y-45814400D03*
D12*
X111820500Y-44301900D03*
X110550500Y-44301900D03*
X109280500Y-44301900D03*
X108010500Y-44301900D03*
X106740500Y-44301900D03*
D13*
X105228000Y-45814400D03*
X105228000Y-47084400D03*
X105228000Y-48354400D03*
X105228000Y-49624400D03*
X105228000Y-50894400D03*
D12*
X106740500Y-52406900D03*
X108010500Y-52406900D03*
%TD*%
D15*
%TO.C,R9*%
X153488000Y-36644400D03*
X153488000Y-39744400D03*
%TD*%
D16*
%TO.C,C8*%
X145067500Y-76548400D03*
X148192500Y-76548400D03*
%TD*%
D15*
%TO.C,R7*%
X97910000Y-69709400D03*
X97910000Y-72809400D03*
%TD*%
D17*
%TO.C,C10*%
X189048000Y-60330900D03*
X189048000Y-57205900D03*
%TD*%
D15*
%TO.C,R10*%
X156028000Y-36644400D03*
X156028000Y-39744400D03*
%TD*%
D18*
%TO.C,D4*%
X87956000Y-72724400D03*
X87956000Y-69749400D03*
%TD*%
D16*
%TO.C,C7*%
X145067500Y-57752400D03*
X148192500Y-57752400D03*
%TD*%
D17*
%TO.C,C4*%
X161362000Y-60330900D03*
X161362000Y-57205900D03*
%TD*%
D19*
%TO.C,R5*%
X102882500Y-75278400D03*
X105982500Y-75278400D03*
%TD*%
%TO.C,R6*%
X115108000Y-72230400D03*
X118208000Y-72230400D03*
%TD*%
D12*
%TO.C,U3*%
X127822500Y-71456900D03*
X129092500Y-71456900D03*
X130362500Y-71456900D03*
D13*
X131875000Y-69944400D03*
X131875000Y-68674400D03*
X131875000Y-67404400D03*
X131875000Y-66134400D03*
X131875000Y-64864400D03*
D12*
X130362500Y-63351900D03*
X129092500Y-63351900D03*
X127822500Y-63351900D03*
X126552500Y-63351900D03*
X125282500Y-63351900D03*
D13*
X123770000Y-64864400D03*
X123770000Y-66134400D03*
X123770000Y-67404400D03*
X123770000Y-68674400D03*
X123770000Y-69944400D03*
D12*
X125282500Y-71456900D03*
X126552500Y-71456900D03*
%TD*%
D16*
%TO.C,C9*%
X107718000Y-57752400D03*
X110843000Y-57752400D03*
%TD*%
D19*
%TO.C,R3*%
X87676000Y-40988400D03*
X90776000Y-40988400D03*
%TD*%
D20*
%TO.C,D1*%
X90713500Y-38448400D03*
X87738500Y-38448400D03*
%TD*%
D21*
%TO.C,R8*%
X127606000Y-38448400D03*
X124506000Y-38448400D03*
%TD*%
D16*
%TO.C,C2*%
X126260000Y-76548400D03*
X129385000Y-76548400D03*
%TD*%
D12*
%TO.C,U2*%
X146630000Y-71456900D03*
X147900000Y-71456900D03*
X149170000Y-71456900D03*
D13*
X150682500Y-69944400D03*
X150682500Y-68674400D03*
X150682500Y-67404400D03*
X150682500Y-66134400D03*
X150682500Y-64864400D03*
D12*
X149170000Y-63351900D03*
X147900000Y-63351900D03*
X146630000Y-63351900D03*
X145360000Y-63351900D03*
X144090000Y-63351900D03*
D13*
X142577500Y-64864400D03*
X142577500Y-66134400D03*
X142577500Y-67404400D03*
X142577500Y-68674400D03*
X142577500Y-69944400D03*
D12*
X144090000Y-71456900D03*
X145360000Y-71456900D03*
%TD*%
D10*
%TO.C,U8*%
X178056918Y-57244400D03*
X178056918Y-55974400D03*
X178056918Y-54704400D03*
X178056918Y-53434400D03*
X178056918Y-52164400D03*
X178056918Y-50894400D03*
X178056918Y-49624400D03*
X178056918Y-48354400D03*
X178056918Y-47084400D03*
X178056918Y-45814400D03*
X178056918Y-44544400D03*
X178056918Y-43274400D03*
X178056918Y-42004400D03*
X178056918Y-40734400D03*
X178056918Y-39464400D03*
X178056918Y-38194400D03*
X164760018Y-38194400D03*
X164760018Y-39464400D03*
X164760018Y-40734400D03*
X164760018Y-42004400D03*
X164760018Y-43274400D03*
X164760018Y-44544400D03*
X164760018Y-45814400D03*
X164760018Y-47084400D03*
X164760018Y-48354400D03*
X164760018Y-49624400D03*
X164760018Y-50894400D03*
X164760018Y-52164400D03*
X164760018Y-53434400D03*
X164760018Y-54704400D03*
X164760018Y-55974400D03*
X164760018Y-57244400D03*
%TD*%
D22*
%TO.C,U9*%
X171408468Y-75978400D03*
X172678468Y-75978400D03*
X173948468Y-75978400D03*
X175218468Y-75978400D03*
D23*
X176970968Y-74220900D03*
X176970968Y-72950900D03*
X176970968Y-71680900D03*
X176970968Y-70410900D03*
X176970968Y-69140900D03*
X176970968Y-67870900D03*
X176970968Y-66600900D03*
X176970968Y-65330900D03*
X176970968Y-64060900D03*
D22*
X175218468Y-62303400D03*
X173948468Y-62303400D03*
X172678468Y-62303400D03*
X171408468Y-62303400D03*
X170138468Y-62303400D03*
X168868468Y-62303400D03*
X167598468Y-62303400D03*
D23*
X165845968Y-64060900D03*
X165845968Y-65330900D03*
X165845968Y-66600900D03*
X165845968Y-67870900D03*
X165845968Y-69140900D03*
X165845968Y-70410900D03*
X165845968Y-71680900D03*
X165845968Y-72950900D03*
X165845968Y-74220900D03*
D22*
X167598468Y-75978400D03*
X168868468Y-75978400D03*
X170138468Y-75978400D03*
%TD*%
D19*
%TO.C,R4*%
X105202000Y-38448400D03*
X108302000Y-38448400D03*
%TD*%
D20*
%TO.C,D3*%
X105897500Y-72380400D03*
X102922500Y-72380400D03*
%TD*%
D22*
%TO.C,U7*%
X199050018Y-75978400D03*
X200320018Y-75978400D03*
X201590018Y-75978400D03*
X202860018Y-75978400D03*
D23*
X204612518Y-74220900D03*
X204612518Y-72950900D03*
X204612518Y-71680900D03*
X204612518Y-70410900D03*
X204612518Y-69140900D03*
X204612518Y-67870900D03*
X204612518Y-66600900D03*
X204612518Y-65330900D03*
X204612518Y-64060900D03*
D22*
X202860018Y-62303400D03*
X201590018Y-62303400D03*
X200320018Y-62303400D03*
X199050018Y-62303400D03*
X197780018Y-62303400D03*
X196510018Y-62303400D03*
X195240018Y-62303400D03*
D23*
X193487518Y-64060900D03*
X193487518Y-65330900D03*
X193487518Y-66600900D03*
X193487518Y-67870900D03*
X193487518Y-69140900D03*
X193487518Y-70410900D03*
X193487518Y-71680900D03*
X193487518Y-72950900D03*
X193487518Y-74220900D03*
D22*
X195240018Y-75978400D03*
X196510018Y-75978400D03*
X197780018Y-75978400D03*
%TD*%
D12*
%TO.C,U1*%
X146630000Y-52406900D03*
X147900000Y-52406900D03*
X149170000Y-52406900D03*
D13*
X150682500Y-50894400D03*
X150682500Y-49624400D03*
X150682500Y-48354400D03*
X150682500Y-47084400D03*
X150682500Y-45814400D03*
D12*
X149170000Y-44301900D03*
X147900000Y-44301900D03*
X146630000Y-44301900D03*
X145360000Y-44301900D03*
X144090000Y-44301900D03*
D13*
X142577500Y-45814400D03*
X142577500Y-47084400D03*
X142577500Y-48354400D03*
X142577500Y-49624400D03*
X142577500Y-50894400D03*
D12*
X144090000Y-52406900D03*
X145360000Y-52406900D03*
%TD*%
D18*
%TO.C,D2*%
X94560000Y-72724400D03*
X94560000Y-69749400D03*
%TD*%
D16*
%TO.C,C5*%
X126006000Y-57752400D03*
X129131000Y-57752400D03*
%TD*%
D24*
%TO.C,J1*%
X86940000Y-29676400D03*
X89480000Y-29676400D03*
X92020000Y-29676400D03*
X94560000Y-29676400D03*
X97100000Y-29676400D03*
X99640000Y-29676400D03*
X102180000Y-29676400D03*
X104720000Y-29676400D03*
X107260000Y-29676400D03*
X109800000Y-29676400D03*
X112340000Y-29676400D03*
X114880000Y-29676400D03*
X117420000Y-29676400D03*
X119960000Y-29676400D03*
X122500000Y-29676400D03*
X125040000Y-29676400D03*
X127580000Y-29676400D03*
X130120000Y-29676400D03*
X132660000Y-29676400D03*
X135200000Y-29676400D03*
X137740000Y-29676400D03*
X140280000Y-29676400D03*
X142820000Y-29676400D03*
X145360000Y-29676400D03*
X147900000Y-29676400D03*
X150440000Y-29676400D03*
X152980000Y-29676400D03*
X155520000Y-29676400D03*
X158060000Y-29676400D03*
X160600000Y-29676400D03*
X163140000Y-29676400D03*
X165680000Y-29676400D03*
X168220000Y-29676400D03*
X170760000Y-29676400D03*
X173300000Y-29676400D03*
X175840000Y-29676400D03*
X178380000Y-29676400D03*
X180920000Y-29676400D03*
X183460000Y-29676400D03*
X186000000Y-29676400D03*
X188540000Y-29676400D03*
X191080000Y-29676400D03*
X193620000Y-29676400D03*
X196160000Y-29676400D03*
X198700000Y-29676400D03*
X201240000Y-29676400D03*
X203780000Y-29676400D03*
X206320000Y-29676400D03*
X208860000Y-29676400D03*
X211400000Y-29676400D03*
%TD*%
D17*
%TO.C,C3*%
X100656000Y-44582900D03*
X100656000Y-41457900D03*
%TD*%
M02*
