M48
; DRILL file {KiCad 9.0.5} date 2025-11-02T09:01:24+0100
; FORMAT={-:-/ absolute / metric / decimal}
; #@! TF.CreationDate,2025-11-02T09:01:24+01:00
; #@! TF.GenerationSoftware,Kicad,Pcbnew,9.0.5
; #@! TF.FileFunction,Plated,2,3,Buried
FMAT,2
METRIC
; #@! TA.AperFunction,Plated,Buried,ViaDrill
T1C0.300
%
G90
G05
T1
X94.433Y-41.242
X113.356Y-40.988
X115.134Y-60.292
X116.658Y-50.64
X118.055Y-41.75
X118.055Y-69.817
X118.944Y-60.292
X119.579Y-40.988
X121.738Y-44.417
X122.373Y-45.179
X126.564Y-61.889
X127.58Y-41.115
X133.676Y-42.639
X134.946Y-75.024
X137.158Y-56.451
X137.471Y-69.929
X137.94Y-55.823
X138.51Y-55.212
X139.391Y-42.766
X140.28Y-54.704
X141.804Y-34.892
X145.995Y-55.974
X147.265Y-41.115
X147.9Y-35.492
X149.17Y-73.627
X154.885Y-42.639
X155.52Y-47.084
X156.79Y-48.354
X158.568Y-45.184
X158.568Y-50.894
X160.264Y-35.522
X161.87Y-43.019
X173.142Y-46.449
X189.302Y-42.643
X193.747Y-41.369
X196.541Y-40.099
M30
