M48
; DRILL file {KiCad 9.0.5} date 2025-11-02T09:01:23+0100
; FORMAT={-:-/ absolute / metric / decimal}
; #@! TF.CreationDate,2025-11-02T09:01:23+01:00
; #@! TF.GenerationSoftware,Kicad,Pcbnew,9.0.5
; #@! TF.FileFunction,Plated,1,2,Blind
FMAT,2
METRIC
; #@! TA.AperFunction,Plated,Buried,ViaDrill
T1C0.300
%
G90
G05
T1
X105.228Y-39.599
X120.341Y-45.814
X121.111Y-47.084
X125.929Y-68.674
X125.937Y-49.624
X126.564Y-45.941
X127.326Y-50.894
X127.575Y-35.421
X129.104Y-61.816
X130.362Y-61.562
X141.042Y-49.624
X141.042Y-50.894
X141.042Y-68.674
X141.042Y-69.944
X143.328Y-41.115
X144.09Y-49.154
X144.09Y-53.942
X144.09Y-67.404
X147.265Y-46.449
X148.535Y-46.441
X152.218Y-49.624
X154.885Y-62.832
X160.891Y-44.29
X160.891Y-49.624
X161.518Y-48.354
X162.759Y-45.814
X167.046Y-55.986
X167.046Y-57.256
X167.046Y-74.221
X167.808Y-42.651
X168.241Y-66.601
X168.241Y-67.871
X168.57Y-41.381
X169.332Y-40.111
X170.138Y-38.835
X172.634Y-72.951
X173.142Y-53.446
X173.904Y-57.256
X174.666Y-55.986
X179.784Y-43.401
X180.411Y-44.545
X181.038Y-45.814
X181.665Y-47.083
X182.919Y-49.625
X183.546Y-50.894
X184.173Y-52.164
X184.8Y-64.061
X186.696Y-53.434
X187.62Y-43.286
X188.382Y-42.016
X188.577Y-49.624
X189.144Y-40.746
X189.204Y-48.354
X189.906Y-39.476
X190.458Y-45.941
X194.224Y-55.986
X194.224Y-57.266
X194.732Y-74.221
X195.883Y-66.601
X196.002Y-67.871
X200.32Y-72.962
X201.59Y-57.256
X202.225Y-55.997
X203.368Y-42.016
X207.483Y-43.266
X208.103Y-44.545
X208.73Y-45.814
X209.357Y-47.083
X210.611Y-49.625
X211.238Y-50.894
X211.865Y-52.164
M30
