M48
; DRILL file {KiCad 9.0.5} date 2025-11-02T09:01:23+0100
; FORMAT={-:-/ absolute / metric / decimal}
; #@! TF.CreationDate,2025-11-02T09:01:23+01:00
; #@! TF.GenerationSoftware,Kicad,Pcbnew,9.0.5
; #@! TF.FileFunction,Plated,1,3,Blind
FMAT,2
METRIC
; #@! TA.AperFunction,Plated,Buried,ViaDrill
T1C0.300
%
G90
G05
T1
X105.228Y-55.212
X106.752Y-55.196
X108.022Y-42.639
X110.55Y-51.148
X111.82Y-54.569
X122.373Y-49.624
X122.373Y-50.894
X124.532Y-52.418
X125.294Y-42.004
X125.294Y-45.814
X129.093Y-69.944
X130.362Y-69.944
X130.374Y-53.688
X140.153Y-46.449
X144.09Y-43.02
X144.09Y-45.814
X144.09Y-47.084
X144.09Y-64.61
X145.36Y-43.02
X145.487Y-46.449
X155.774Y-64.745
X158.383Y-54.704
X164.791Y-37.305
X166.284Y-39.476
X166.284Y-40.746
X166.284Y-42.016
X166.284Y-43.286
X166.284Y-44.556
X170.856Y-37.559
X171.903Y-36.174
X172.411Y-36.797
X193.462Y-60.759
X195.24Y-60.759
X196.51Y-60.759
X197.78Y-60.759
X199.05Y-60.759
X201.59Y-60.759
X202.002Y-36.797
X202.86Y-60.759
X203.272Y-36.162
M30
