M48
; DRILL file {KiCad 9.0.5} date 2025-11-02T09:01:23+0100
; FORMAT={-:-/ absolute / metric / decimal}
; #@! TF.CreationDate,2025-11-02T09:01:23+01:00
; #@! TF.GenerationSoftware,Kicad,Pcbnew,9.0.5
; #@! TF.FileFunction,Plated,1,4,PTH
FMAT,2
METRIC
; #@! TA.AperFunction,Plated,PTH,ViaDrill
T1C0.300
; #@! TA.AperFunction,Plated,PTH,ComponentDrill
T2C0.650
; #@! TA.AperFunction,Plated,PTH,ComponentDrill
T3C0.800
; #@! TA.AperFunction,Plated,PTH,ComponentDrill
T4C1.000
%
G90
G05
T1
X86.94Y-34.257
X86.94Y-34.892
X86.94Y-35.654
X89.48Y-34.257
X89.48Y-34.892
X89.48Y-35.654
X91.385Y-45.814
X91.385Y-52.164
X92.02Y-34.257
X92.02Y-34.892
X92.02Y-35.654
X92.147Y-38.448
X96.211Y-55.72
X96.211Y-60.927
X96.973Y-55.72
X96.973Y-60.927
X97.735Y-55.72
X97.735Y-60.927
X98.497Y-47.084
X98.497Y-52.164
X99.132Y-50.894
X99.132Y-63.467
X99.259Y-41.496
X100.402Y-46.419
X100.783Y-64.737
X102.18Y-44.544
X102.942Y-69.944
X103.45Y-44.29
X104.212Y-55.212
X105.99Y-64.102
X107.718Y-59.53
X108.01Y-52.407
X109.28Y-53.931
X110.562Y-45.687
X111.832Y-50.64
X111.959Y-47.084
X112.34Y-57.752
X113.356Y-51.783
X113.65Y-34.596
X114.499Y-64.745
X115.134Y-48.354
X115.134Y-49.624
X115.761Y-45.814
X115.769Y-56.906
X116.658Y-57.706
X117.4Y-34.846
X118.929Y-48.971
X119.579Y-67.404
X119.95Y-35.746
X120.341Y-60.292
X121.111Y-63.975
X122.5Y-35.746
X123.135Y-73.627
X123.525Y-34.896
X123.77Y-53.942
X123.77Y-63.34
X124.659Y-59.53
X125.025Y-35.746
X125.921Y-47.084
X126.31Y-34.906
X127.034Y-69.944
X127.834Y-53.688
X127.834Y-69.944
X128.469Y-68.039
X128.596Y-38.448
X128.6Y-34.871
X129.104Y-45.806
X129.104Y-53.688
X129.104Y-64.737
X130.12Y-34.892
X130.12Y-37.305
X130.374Y-45.814
X130.882Y-57.752
X130.882Y-76.548
X132.66Y-34.892
X133.665Y-48.354
X134.311Y-45.814
X134.311Y-69.944
X134.575Y-34.9
X134.692Y-37.297
X134.692Y-43.642
X134.946Y-67.404
X135.708Y-62.832
X135.708Y-66.134
X136.275Y-34.396
X137.471Y-67.439
X137.74Y-34.9
X138.55Y-34.346
X139.391Y-34.264
X140.28Y-34.892
X142.816Y-34.283
X144.03Y-56.688
X144.09Y-48.354
X145.345Y-59.53
X145.36Y-34.246
X145.36Y-50.386
X145.36Y-64.61
X146.376Y-66.134
X146.63Y-50.386
X146.63Y-72.992
X147.9Y-42.766
X147.9Y-50.386
X147.9Y-61.816
X147.9Y-72.992
X149.17Y-52.352
X149.17Y-61.816
X149.17Y-65.372
X149.932Y-57.752
X149.932Y-76.548
X150.44Y-36.416
X150.694Y-51.656
X151.71Y-36.416
X152.218Y-56.621
X152.218Y-66.134
X152.218Y-67.404
X152.218Y-68.674
X152.218Y-69.944
X152.98Y-34.892
X152.98Y-57.752
X153.488Y-36.644
X153.488Y-68.047
X153.742Y-34.421
X153.996Y-57.752
X155.52Y-34.892
X156.028Y-36.644
X156.282Y-34.446
X157.768Y-50.894
X158.06Y-34.892
X159.01Y-53.434
X159.01Y-74.221
X159.33Y-34.264
X159.33Y-39.718
X159.33Y-49.624
X159.637Y-52.164
X159.637Y-72.951
X160.264Y-42.004
X160.264Y-50.894
X160.264Y-71.681
X160.891Y-70.411
X161.362Y-34.546
X161.518Y-69.141
X162.145Y-47.096
X162.145Y-67.871
X162.772Y-66.601
X163.399Y-60.292
X165.675Y-34.671
X166.315Y-53.434
X166.376Y-55.359
X167.046Y-52.806
X167.5Y-34.321
X168.868Y-77.15
X169.275Y-34.221
X171.9Y-34.146
X172.634Y-60.759
X173.3Y-34.596
X174.35Y-34.446
X175.35Y-34.671
X176.225Y-34.696
X176.536Y-56.621
X176.729Y-40.738
X176.729Y-42.008
X177.11Y-34.892
X179.639Y-38.175
X179.65Y-34.796
X179.784Y-65.331
X180.411Y-66.601
X180.92Y-36.162
X181.038Y-67.871
X181.665Y-69.141
X182.292Y-48.355
X182.292Y-70.411
X182.919Y-71.681
X183.46Y-36.797
X183.546Y-72.951
X184.025Y-39.464
X184.174Y-74.221
X184.73Y-34.892
X184.73Y-37.424
X184.8Y-53.434
X184.8Y-54.704
X184.8Y-55.974
X184.8Y-57.244
X186.0Y-34.892
X186.055Y-54.069
X186.696Y-74.221
X186.889Y-43.909
X187.323Y-52.164
X187.323Y-72.951
X187.728Y-39.464
X187.95Y-50.894
X187.95Y-71.681
X188.54Y-34.892
X188.577Y-70.411
X189.204Y-69.141
X189.81Y-34.892
X189.81Y-44.544
X189.831Y-47.096
X189.831Y-67.871
X190.458Y-66.601
X190.67Y-38.186
X191.08Y-34.892
X191.207Y-60.292
X191.522Y-65.319
X192.477Y-34.892
X193.62Y-34.892
X194.382Y-38.829
X197.78Y-77.15
X197.811Y-78.58
X199.081Y-38.829
X200.32Y-60.759
X201.621Y-42.004
X203.968Y-53.434
X203.968Y-54.704
X203.968Y-55.986
X203.968Y-57.244
X205.746Y-64.049
X207.432Y-38.206
X207.476Y-65.331
X208.103Y-66.601
X208.73Y-67.871
X209.357Y-69.141
X209.984Y-48.355
X209.984Y-70.411
X210.611Y-71.681
X211.238Y-72.951
X211.866Y-74.221
T2
X116.023Y-75.024
X117.293Y-75.024
T3
X88.464Y-58.154
X88.464Y-64.947
X91.004Y-58.154
X91.004Y-64.947
X93.544Y-58.154
X93.544Y-64.947
X100.148Y-57.309
X100.148Y-59.809
X110.562Y-72.549
X110.562Y-75.049
T4
X96.084Y-38.448
X98.624Y-38.448
X101.164Y-38.448
X110.562Y-62.832
X110.562Y-65.372
X110.562Y-67.912
X113.356Y-38.423
X115.896Y-38.423
X116.658Y-62.832
X116.658Y-65.372
X116.658Y-67.912
X118.436Y-38.423
X144.09Y-38.194
X146.63Y-38.194
X149.17Y-38.194
M30
